<?xml version="1.0" encoding="utf-8"?> 
<!DOCTYPE svg PUBLIC "-//W3C//DTD SVG 1.1//EN" "http://www.w3.org/Graphics/SVG/1.1/DTD/svg11.dtd">
<svg version="1.1" id="图层_1" xmlns="http://www.w3.org/2000/svg" xmlns:xlink="http://www.w3.org/1999/xlink" x="0px" y="0px"
	 width="32px" height="32px" viewBox="0 0 32 32" enable-background="new 0 0 32 32" xml:space="preserve">
<path fill="#555555" d="M26.281,11.885c-1.141-2.2-2.749-3.412-4.529-3.412c-1.164,0-2.28,0.53-3.228,1.533
	c-0.262,0.278-0.512,0.593-0.746,0.94c-0.225-0.791-0.472-1.543-0.744-2.252C16.328,6.745,16,6.136,14.519,4.296
	c-1.925-1.733-3.191-2.006-4.497-2.162c-1.359-0.162-3.887,0.115-5,1.343C4.068,4.53,3.794,5.625,3.631,9.187
	C3.411,13.03,3.38,18.264,3.38,23.478c0,0.538,0.985,0.672,1.567,0.672c0.933,0,1.268-0.656,1.268-1.194
	c0-4.998-0.236-15.303,0.547-17.094c0.836-1.636,2.207-1.892,3.704-1.351c1.35,0.488,3.157,1.888,4.347,4.99
	C16.157,13.01,16,18.106,16,23.104c0,0.538,0.656,1.045,1.531,1.045c0.594,0,1.074-0.593,1.074-1.131
	c0-2.944-0.113-6.183-0.088-8.867c0.003-0.011,0.009-0.022,0.012-0.034c0.773-2.249,2.037-3.701,3.223-3.701
	c0.911,0,1.87,0.841,2.632,2.307c0.889,1.716,1.379,4.019,1.379,6.484c0,0.537,0.473,0.972,1.054,0.972
	c0.58,0,1.053-0.435,1.053-0.972C27.869,16.458,27.305,13.857,26.281,11.885z"/>
<path fill="#64BC46" d="M10.136,28.6c-0.526,0-1.012-0.011-1.449-0.031c-0.581-0.026-1.028-0.482-0.999-1.018
	s0.523-0.951,1.104-0.923c3.758,0.173,12.325-0.488,18.44-1.947c-0.497-0.126-1.051-0.255-1.628-0.389
	c-1.404-0.324-2.854-0.661-3.871-1.056c-0.389-0.151-0.682-0.313-0.898-0.497c-0.515-0.436-0.521-0.914-0.48-1.163
	c0.074-0.424,0.368-0.774,0.88-1.045c0.271-0.144,0.617-0.273,1.062-0.397c0.655-0.185,1.539-0.359,2.628-0.521
	c1.813-0.271,3.571-0.414,3.646-0.42c0.579-0.047,1.09,0.35,1.14,0.885c0.051,0.535-0.379,1.006-0.958,1.052
	c-0.018,0.002-1.466,0.12-3.032,0.336c-0.878,0.122-1.541,0.238-2.038,0.343c0.736,0.207,1.595,0.404,2.437,0.599
	c1.027,0.239,2.001,0.465,2.755,0.702c0.461,0.144,0.798,0.279,1.061,0.425c0.683,0.375,0.833,0.84,0.839,1.164
	c0.004,0.271-0.093,0.783-0.802,1.173c-0.289,0.158-0.67,0.297-1.196,0.438c-2.813,0.744-6.609,1.39-10.69,1.818
	C15.15,28.433,12.302,28.6,10.136,28.6z"/>
</svg>
